<?xml version="1.0" encoding="UTF-8"?>
<!DOCTYPE svg PUBLIC "-//W3C//DTD SVG 1.1//EN" "http://www.w3.org/Graphics/SVG/1.1/DTD/svg11.dtd">
<svg xmlns="http://www.w3.org/2000/svg" version="1.1" width="165px" height="213px" style="shape-rendering:geometricPrecision; text-rendering:geometricPrecision; image-rendering:optimizeQuality; fill-rule:evenodd; clip-rule:evenodd" xmlns:xlink="http://www.w3.org/1999/xlink">
<g><path style="opacity:0.999" fill="#ffffff" d="M 164.5,0.5 C 164.5,51.5 164.5,102.5 164.5,153.5C 163.069,154.78 162.402,156.447 162.5,158.5C 161.094,158.973 160.427,159.973 160.5,161.5C 159.5,163.167 158.167,164.5 156.5,165.5C 155.167,165.5 154.5,166.167 154.5,167.5C 153.508,167.328 152.842,167.662 152.5,168.5C 151.391,168.557 150.391,168.89 149.5,169.5C 147.973,169.427 146.973,170.094 146.5,171.5C 131.838,172.054 117.172,172.554 102.5,173C 96.8809,173.046 91.5476,174.213 86.5,176.5C 84.8762,176.64 83.7096,175.973 83,174.5C 82.6924,175.308 82.1924,175.975 81.5,176.5C 77.0084,173.313 72.0084,171.813 66.5,172C 52.1705,171.5 37.8372,171.333 23.5,171.5C 21.8333,171.5 20.1667,171.5 18.5,171.5C 15.328,169.748 12.328,167.748 9.5,165.5C 8.41543,163.413 6.74876,162.08 4.5,161.5C 3.5,159.5 2.5,157.5 1.5,155.5C 1.5,103.833 1.5,52.1667 1.5,0.5C 55.8333,0.5 110.167,0.5 164.5,0.5 Z M 29.5,10.5 C 70.6633,11.4986 111.997,11.832 153.5,11.5C 153.5,57.1667 153.5,102.833 153.5,148.5C 153.85,151.453 152.85,153.787 150.5,155.5C 148.596,155.738 147.262,156.738 146.5,158.5C 144.495,159.039 142.495,159.705 140.5,160.5C 124.437,161.181 108.437,161.848 92.5,162.5C 90.1016,162.259 88.1016,162.926 86.5,164.5C 85.4693,165.355 84.3026,166.022 83,166.5C 80.9288,165.213 78.7621,164.047 76.5,163C 59.1765,162.084 41.8432,161.417 24.5,161C 19.1017,160.611 14.935,158.111 12,153.5C 10.3579,106.204 10.0246,58.8709 11,11.5C 17.0758,10.5236 23.2424,10.1903 29.5,10.5 Z"/></g>
<g><path style="opacity:0.877" fill="#ffffff" d="M -0.5,0.5 C -0.5,0.166667 -0.5,-0.166667 -0.5,-0.5C 54.5,-0.5 109.5,-0.5 164.5,-0.5C 164.5,-0.166667 164.5,0.166667 164.5,0.5C 110.167,0.5 55.8333,0.5 1.5,0.5C 1.5,52.1667 1.5,103.833 1.5,155.5C 0.833333,103.833 0.166667,52.1667 -0.5,0.5 Z"/></g>
<g><path style="opacity:1" fill="#ffffff" d="M 153.5,148.5 C 153.5,102.833 153.5,57.1667 153.5,11.5C 111.997,11.832 70.6633,11.4986 29.5,10.5C 71.4057,10.8301 113.239,10.4968 155,9.5C 155.667,55.5 155.667,101.5 155,147.5C 154.617,148.056 154.117,148.389 153.5,148.5 Z"/></g>
<g><path style="opacity:0.999" fill="#ffffff" d="M 67.5,30.5 C 77.5,30.5 87.5,30.5 97.5,30.5C 97.3359,33.1873 97.5026,35.854 98,38.5C 99.1096,40.0368 100.61,40.7035 102.5,40.5C 103.492,40.3284 104.158,40.6618 104.5,41.5C 105.624,42.8086 107.124,43.4753 109,43.5C 111.562,42.6123 113.896,41.279 116,39.5C 117.406,40.4138 118.906,41.0805 120.5,41.5C 124.833,45.1667 128.833,49.1667 132.5,53.5C 132.5,55.5 133.5,56.5 135.5,56.5C 136.478,56.811 137.145,57.4777 137.5,58.5C 136.291,60.9408 134.624,62.9408 132.5,64.5C 131.099,68.409 132.099,71.7423 135.5,74.5C 135.5,75.5 135.5,76.5 135.5,77.5C 138.713,77.19 141.713,77.5233 144.5,78.5C 144.827,87.6822 144.493,96.6822 143.5,105.5C 142.833,105.5 142.5,105.167 142.5,104.5C 142.027,103.094 141.027,102.427 139.5,102.5C 139.027,101.094 138.027,100.427 136.5,100.5C 136.5,95.5 136.5,90.5 136.5,85.5C 133.753,85.8134 131.086,85.48 128.5,84.5C 127.625,80.7888 126.625,77.1221 125.5,73.5C 125.13,70.733 123.796,68.733 121.5,67.5C 121.5,67.1667 121.5,66.8333 121.5,66.5C 121.629,64.7839 121.962,63.1172 122.5,61.5C 123.586,61.38 124.253,60.7133 124.5,59.5C 124.457,58.5836 124.124,57.9169 123.5,57.5C 121.554,53.6832 118.554,51.8499 114.5,52C 111.987,55.132 109.32,55.2987 106.5,52.5C 106.027,51.0937 105.027,50.427 103.5,50.5C 99.1051,48.3068 94.4385,47.3068 89.5,47.5C 89.5,44.5 89.5,41.5 89.5,38.5C 85.1667,38.5 80.8333,38.5 76.5,38.5C 76.5,41.1667 76.5,43.8333 76.5,46.5C 68.6158,47.294 61.4491,49.9607 55,54.5C 53.0362,53.536 51.3695,52.2026 50,50.5C 45.6975,52.7738 43.0308,56.1071 42,60.5C 43.353,61.6853 44.5197,63.0186 45.5,64.5C 41.1302,70.9069 38.1302,77.9069 36.5,85.5C 34.1667,85.5 31.8333,85.5 29.5,85.5C 29.3256,88.8738 28.8256,92.2072 28,95.5C 26.5945,98.4086 24.4278,100.409 21.5,101.5C 20.5076,93.6841 20.1743,85.6841 20.5,77.5C 23.7131,77.81 26.7131,77.4767 29.5,76.5C 31.7845,73.4263 33.4512,69.9263 34.5,66C 33.2719,63.2697 31.2719,61.4364 28.5,60.5C 28.3505,59.448 28.5172,58.448 29,57.5C 31.4003,55.2707 33.567,52.9374 35.5,50.5C 35.5,49.8333 35.8333,49.5 36.5,49.5C 39.5,48.5 41.5,46.5 42.5,43.5C 45.1311,41.8876 47.7978,40.221 50.5,38.5C 52.4807,40.1436 54.4807,41.8103 56.5,43.5C 59.6439,42.4267 62.6439,41.0934 65.5,39.5C 67.3878,37.0122 68.0545,34.0122 67.5,30.5 Z"/></g>
<g><path style="opacity:0.594" fill="#ffffff" d="M 67.5,29.5 C 67.5,29.8333 67.5,30.1667 67.5,30.5C 68.0545,34.0122 67.3878,37.0122 65.5,39.5C 66.0965,36.0588 66.7632,32.7254 67.5,29.5 Z"/></g>
<g><path style="opacity:0.957" fill="#ffffff" d="M 67.5,30.5 C 67.5,30.1667 67.5,29.8333 67.5,29.5C 77.8333,29.5 88.1667,29.5 98.5,29.5C 97.6561,34.1381 98.9894,37.8047 102.5,40.5C 100.61,40.7035 99.1096,40.0368 98,38.5C 97.5026,35.854 97.3359,33.1873 97.5,30.5C 87.5,30.5 77.5,30.5 67.5,30.5 Z"/></g>
<g><path style="opacity:0.816" fill="#ffffff" d="M 50.5,38.5 C 47.7978,40.221 45.1311,41.8876 42.5,43.5C 43.9599,41.5372 45.6266,39.7038 47.5,38C 48.7494,37.2599 49.7494,37.4265 50.5,38.5 Z"/></g>
<g><path style="opacity:0.965" fill="#ffffff" d="M 120.5,41.5 C 118.906,41.0805 117.406,40.4138 116,39.5C 113.896,41.279 111.562,42.6123 109,43.5C 107.124,43.4753 105.624,42.8086 104.5,41.5C 106.512,42.0138 108.512,42.1805 110.5,42C 113.814,36.3634 117.147,36.1967 120.5,41.5 Z"/></g>
<g><path style="opacity:0.973" fill="#ffffff" d="M 42.5,43.5 C 41.5,46.5 39.5,48.5 36.5,49.5C 38.1667,47.1667 40.1667,45.1667 42.5,43.5 Z"/></g>
<g><path style="opacity:0.341" fill="#ffffff" d="M 103.5,50.5 C 105.027,50.427 106.027,51.0937 106.5,52.5C 104.973,52.573 103.973,51.9063 103.5,50.5 Z"/></g>
<g><path style="opacity:0.898" fill="#ffffff" d="M 132.5,53.5 C 133.833,54.1667 134.833,55.1667 135.5,56.5C 133.5,56.5 132.5,55.5 132.5,53.5 Z"/></g>
<g><path style="opacity:0.851" fill="#ffffff" d="M 35.5,50.5 C 33.567,52.9374 31.4003,55.2707 29,57.5C 28.5172,58.448 28.3505,59.448 28.5,60.5C 27.4017,59.3991 27.235,58.0657 28,56.5C 30.1057,53.8823 32.6057,51.8823 35.5,50.5 Z"/></g>
<g><path style="opacity:0.875" fill="#ffffff" d="M 28.5,60.5 C 31.2719,61.4364 33.2719,63.2697 34.5,66C 33.4512,69.9263 31.7845,73.4263 29.5,76.5C 30.3405,72.8118 31.6738,69.3118 33.5,66C 31.6266,64.2962 29.9599,62.4628 28.5,60.5 Z"/></g>
<g><path style="opacity:0.969" fill="#ffffff" d="M 123.5,57.5 C 124.124,57.9169 124.457,58.5836 124.5,59.5C 124.253,60.7133 123.586,61.38 122.5,61.5C 123.234,60.2921 123.567,58.9587 123.5,57.5 Z"/></g>
<g><path style="opacity:0.808" fill="#ffffff" d="M 122.5,61.5 C 121.962,63.1172 121.629,64.7839 121.5,66.5C 118.941,64.5434 119.274,62.8767 122.5,61.5 Z"/></g>
<g><path style="opacity:0.961" fill="#ffffff" d="M 121.5,67.5 C 123.796,68.733 125.13,70.733 125.5,73.5C 123.684,71.8816 122.351,69.8816 121.5,67.5 Z"/></g>
<g><path style="opacity:1" fill="#ffffff" d="M 132.5,64.5 C 133.492,67.8229 134.492,71.1563 135.5,74.5C 132.099,71.7423 131.099,68.409 132.5,64.5 Z"/></g>
<g><path style="opacity:1" fill="#ffffff" d="M 135.5,74.5 C 139.038,75.6601 142.372,76.9935 145.5,78.5C 145.167,78.5 144.833,78.5 144.5,78.5C 141.713,77.5233 138.713,77.19 135.5,77.5C 135.5,76.5 135.5,75.5 135.5,74.5 Z"/></g>
<g><path style="opacity:0.498" fill="#ffffff" d="M 29.5,76.5 C 26.7131,77.4767 23.7131,77.81 20.5,77.5C 20.1743,85.6841 20.5076,93.6841 21.5,101.5C 21.44,102.043 21.1067,102.376 20.5,102.5C 19.502,93.8589 19.1686,85.1922 19.5,76.5C 22.8333,76.5 26.1667,76.5 29.5,76.5 Z"/></g>
<g><path style="opacity:1" fill="#ffffff" d="M 144.5,78.5 C 144.833,78.5 145.167,78.5 145.5,78.5C 145.832,87.8571 145.498,97.1904 144.5,106.5C 143.893,106.376 143.56,106.043 143.5,105.5C 144.493,96.6822 144.827,87.6822 144.5,78.5 Z"/></g>
<g><path style="opacity:0.997" fill="#ffffff" d="M 132.5,110.5 C 133.659,112.25 135.326,113.25 137.5,113.5C 138.5,114.167 139.5,114.833 140.5,115.5C 141.052,118.116 141.386,120.783 141.5,123.5C 141.461,125.952 140.794,127.952 139.5,129.5C 139.167,129.5 138.833,129.5 138.5,129.5C 137.833,126.833 136.167,125.167 133.5,124.5C 133.027,123.094 132.027,122.427 130.5,122.5C 124.434,120.111 118.1,118.611 111.5,118C 109.5,116.667 107.5,115.333 105.5,114C 98.9843,114.013 92.6509,113.013 86.5,111C 83.0003,108.331 79.667,105.498 76.5,102.5C 75.3933,100.031 73.3933,99.0311 70.5,99.5C 66.8183,99.3347 63.1516,99.5014 59.5,100C 47.7674,107.568 36.7674,116.068 26.5,125.5C 25.5041,125.414 24.6708,125.748 24,126.5C 23.3333,122.167 23.3333,117.833 24,113.5C 25.045,112.627 25.8783,111.627 26.5,110.5C 28.5952,109.588 30.5952,108.421 32.5,107C 33.2524,106.329 33.5858,105.496 33.5,104.5C 35.0269,104.573 36.0269,103.906 36.5,102.5C 39.0892,101.581 41.0892,99.914 42.5,97.5C 44.4044,97.2624 45.7377,96.2624 46.5,94.5C 49.8045,91.3506 53.8045,89.5173 58.5,89C 66.5285,87.6441 74.1952,88.6441 81.5,92C 85.1667,95 88.8333,98 92.5,101C 97.8333,101.333 103.167,101.667 108.5,102C 111.128,103.626 113.461,105.626 115.5,108C 121.344,108.048 127.011,108.881 132.5,110.5 Z"/></g>
<g><path style="opacity:0.784" fill="#ffffff" d="M 46.5,94.5 C 45.7377,96.2624 44.4044,97.2624 42.5,97.5C 43.2623,95.7376 44.5956,94.7376 46.5,94.5 Z"/></g>
<g><path style="opacity:1" fill="#ffffff" d="M 70.5,99.5 C 73.3933,99.0311 75.3933,100.031 76.5,102.5C 74.1815,102.008 72.1815,101.008 70.5,99.5 Z"/></g>
<g><path style="opacity:0.933" fill="#ffffff" d="M 42.5,97.5 C 41.0892,99.914 39.0892,101.581 36.5,102.5C 37.9108,100.086 39.9108,98.4194 42.5,97.5 Z"/></g>
<g><path style="opacity:0.812" fill="#ffffff" d="M 136.5,100.5 C 138.027,100.427 139.027,101.094 139.5,102.5C 137.973,102.573 136.973,101.906 136.5,100.5 Z"/></g>
<g><path style="opacity:0.753" fill="#ffffff" d="M 36.5,102.5 C 36.0269,103.906 35.0269,104.573 33.5,104.5C 33.9731,103.094 34.9731,102.427 36.5,102.5 Z"/></g>
<g><path style="opacity:0.62" fill="#ffffff" d="M 139.5,102.5 C 141.027,102.427 142.027,103.094 142.5,104.5C 140.973,104.573 139.973,103.906 139.5,102.5 Z"/></g>
<g><path style="opacity:0.694" fill="#ffffff" d="M 33.5,104.5 C 33.5858,105.496 33.2524,106.329 32.5,107C 30.5952,108.421 28.5952,109.588 26.5,110.5C 28.2344,107.8 30.5677,105.8 33.5,104.5 Z"/></g>
<g><path style="opacity:0.467" fill="#ffffff" d="M 132.5,110.5 C 134.674,110.75 136.341,111.75 137.5,113.5C 135.326,113.25 133.659,112.25 132.5,110.5 Z"/></g>
<g><path style="opacity:0.708" fill="#ffffff" d="M 26.5,110.5 C 25.8783,111.627 25.045,112.627 24,113.5C 23.3333,117.833 23.3333,122.167 24,126.5C 24.6708,125.748 25.5041,125.414 26.5,125.5C 25.713,127.104 24.3797,127.771 22.5,127.5C 22.3341,122.489 22.5007,117.489 23,112.5C 23.8159,111.177 24.9826,110.511 26.5,110.5 Z"/></g>
<g><path style="opacity:1" fill="#ffffff" d="M 140.5,115.5 C 142.213,116.635 142.88,118.302 142.5,120.5C 142.813,124.042 142.479,127.375 141.5,130.5C 140.508,130.672 139.842,130.338 139.5,129.5C 140.794,127.952 141.461,125.952 141.5,123.5C 141.386,120.783 141.052,118.116 140.5,115.5 Z"/></g>
<g><path style="opacity:0.769" fill="#ffffff" d="M 130.5,122.5 C 132.027,122.427 133.027,123.094 133.5,124.5C 131.973,124.573 130.973,123.906 130.5,122.5 Z"/></g>
<g><path style="opacity:0.847" fill="#ffffff" d="M 133.5,124.5 C 136.167,125.167 137.833,126.833 138.5,129.5C 136.5,128.167 134.833,126.5 133.5,124.5 Z"/></g>
<g><path style="opacity:0.275" fill="#ffffff" d="M 142.5,120.5 C 143.808,124.019 143.808,127.685 142.5,131.5C 141.893,131.376 141.56,131.043 141.5,130.5C 142.479,127.375 142.813,124.042 142.5,120.5 Z"/></g>
<g><path style="opacity:0.608" fill="#ffffff" d="M 150.5,155.5 C 149.738,157.262 148.404,158.262 146.5,158.5C 147.262,156.738 148.596,155.738 150.5,155.5 Z"/></g>
<g><path style="opacity:0.506" fill="#ffffff" d="M 164.5,153.5 C 164.5,154.5 164.5,155.5 164.5,156.5C 163.833,157.167 163.167,157.833 162.5,158.5C 162.402,156.447 163.069,154.78 164.5,153.5 Z"/></g>
<g><path style="opacity:0.447" fill="#ffffff" d="M 162.5,158.5 C 162.573,160.027 161.906,161.027 160.5,161.5C 160.427,159.973 161.094,158.973 162.5,158.5 Z"/></g>
<g><path style="opacity:0.675" fill="#ffffff" d="M 4.5,161.5 C 6.74876,162.08 8.41543,163.413 9.5,165.5C 7.25124,164.92 5.58457,163.587 4.5,161.5 Z"/></g>
<g><path style="opacity:1" fill="#404040" d="M 92.5,162.5 C 90.8984,164.074 88.8984,164.741 86.5,164.5C 88.1016,162.926 90.1016,162.259 92.5,162.5 Z"/></g>
<g><path style="opacity:0.114" fill="#ffffff" d="M 156.5,165.5 C 156.167,166.5 155.5,167.167 154.5,167.5C 154.5,166.167 155.167,165.5 156.5,165.5 Z"/></g>
<g><path style="opacity:0.035" fill="#ffffff" d="M 154.5,167.5 C 153.994,169.105 153.327,169.439 152.5,168.5C 152.842,167.662 153.508,167.328 154.5,167.5 Z"/></g>
<g><path style="opacity:0.071" fill="#ffffff" d="M 149.5,169.5 C 149.027,170.906 148.027,171.573 146.5,171.5C 146.973,170.094 147.973,169.427 149.5,169.5 Z"/></g>
<g><path style="opacity:0.28" fill="#ffffff" d="M 18.5,171.5 C 20.1667,171.5 21.8333,171.5 23.5,171.5C 23.5,171.833 23.5,172.167 23.5,172.5C 22.71,173.609 22.21,174.942 22,176.5C 21.7428,174.093 20.5762,172.427 18.5,171.5 Z"/></g>
<g><path style="opacity:0.98" fill="#ffffff" d="M 23.5,172.5 C 23.5,172.167 23.5,171.833 23.5,171.5C 37.8372,171.333 52.1705,171.5 66.5,172C 72.0084,171.813 77.0084,173.313 81.5,176.5C 82.1924,175.975 82.6924,175.308 83,174.5C 83.7096,175.973 84.8762,176.64 86.5,176.5C 85.5637,177.974 84.2303,178.974 82.5,179.5C 82.0269,178.094 81.0269,177.427 79.5,177.5C 75.3152,174.578 70.6486,173.078 65.5,173C 51.504,172.5 37.504,172.333 23.5,172.5 Z"/></g>
<g><path style="opacity:0.031" fill="#ffffff" d="M 20.5,177.5 C 21.5983,178.601 21.765,179.934 21,181.5C 20.51,180.207 20.3433,178.873 20.5,177.5 Z"/></g>
<g><path style="opacity:0.945" fill="#ffffff" d="M 79.5,177.5 C 81.0269,177.427 82.0269,178.094 82.5,179.5C 80.9731,179.573 79.9731,178.906 79.5,177.5 Z"/></g>
<g><path style="opacity:0.251" fill="#ffffff" d="M 46.5,194.5 C 38.1667,194.5 29.8333,194.5 21.5,194.5C 20.6618,194.842 20.3284,195.508 20.5,196.5C 19.596,195.791 19.2627,194.791 19.5,193.5C 28.6822,193.173 37.6822,193.507 46.5,194.5 Z"/></g>
<g><path style="opacity:0.866" fill="#ffffff" d="M 143.5,204.5 C 143.5,201.5 143.5,198.5 143.5,195.5C 125.472,195.221 107.472,195.554 89.5,196.5C 92.3852,194.98 95.5519,193.98 99,193.5C 114.142,194.461 129.308,194.794 144.5,194.5C 144.813,198.042 144.479,201.375 143.5,204.5 Z"/></g>
<g><path style="opacity:0.991" fill="#ffffff" d="M 21.5,194.5 C 29.8333,194.5 38.1667,194.5 46.5,194.5C 56.8852,194.214 67.2185,194.548 77.5,195.5C 77.4142,196.496 77.7476,197.329 78.5,198C 80.1341,198.494 81.8008,198.66 83.5,198.5C 85.5,197.833 87.5,197.167 89.5,196.5C 107.472,195.554 125.472,195.221 143.5,195.5C 143.5,198.5 143.5,201.5 143.5,204.5C 129.163,204.333 114.829,204.5 100.5,205C 97.6229,206.127 94.6229,206.794 91.5,207C 88.7737,209.03 85.7737,210.53 82.5,211.5C 80.5828,211.246 79.2495,210.246 78.5,208.5C 75.9164,206.528 72.9164,205.528 69.5,205.5C 66.2139,204.793 62.8806,204.46 59.5,204.5C 58.5,204.5 57.5,204.5 56.5,204.5C 44.8333,204.5 33.1667,204.5 21.5,204.5C 21.5,201.167 21.5,197.833 21.5,194.5 Z"/></g>
<g><path style="opacity:0.655" fill="#ffffff" d="M 77.5,195.5 C 79.8185,195.992 81.8185,196.992 83.5,198.5C 81.8008,198.66 80.1341,198.494 78.5,198C 77.7476,197.329 77.4142,196.496 77.5,195.5 Z"/></g>
<g><path style="opacity:0.158" fill="#ffffff" d="M 21.5,194.5 C 21.5,197.833 21.5,201.167 21.5,204.5C 33.1667,204.5 44.8333,204.5 56.5,204.5C 44.6783,205.495 32.6783,205.828 20.5,205.5C 20.5,202.5 20.5,199.5 20.5,196.5C 20.3284,195.508 20.6618,194.842 21.5,194.5 Z"/></g>
<g><path style="opacity:0.561" fill="#ffffff" d="M 59.5,204.5 C 62.8806,204.46 66.2139,204.793 69.5,205.5C 69.5,205.833 69.5,206.167 69.5,206.5C 65.8776,206.678 62.5443,206.011 59.5,204.5 Z"/></g>
<g><path style="opacity:1" fill="#ffffff" d="M 69.5,206.5 C 69.5,206.167 69.5,205.833 69.5,205.5C 72.9164,205.528 75.9164,206.528 78.5,208.5C 75.4261,208.127 72.4261,207.461 69.5,206.5 Z"/></g>
</svg>
