<?xml version="1.0" standalone="no"?>
<!DOCTYPE svg PUBLIC "-//W3C//DTD SVG 20010904//EN"
 "http://www.w3.org/TR/2001/REC-SVG-20010904/DTD/svg10.dtd">
<svg version="1.0" xmlns="http://www.w3.org/2000/svg"
 width="108.000000pt" height="162.000000pt" viewBox="0 0 108.000000 162.000000"
 preserveAspectRatio="xMidYMid meet">

<g transform="translate(0.000000,162.000000) scale(0.100000,-0.100000)"
fill="#e3f9f9" stroke="none">
<path d="M806 1543 c-14 -21 -38 -67 -53 -103 -26 -61 -28 -74 -28 -210 0
-121 4 -158 22 -220 51 -172 64 -259 72 -475 8 -239 3 -222 117 -396 71 -108
90 -127 105 -112 23 23 -43 351 -96 478 -18 45 -38 108 -45 140 -16 83 -24
329 -15 458 l7 109 34 -7 c47 -8 111 11 130 40 24 37 15 68 -24 81 -18 5 -40
18 -50 28 -16 18 -16 19 1 13 15 -6 16 -4 7 14 -6 11 -19 23 -28 26 -9 3 -24
12 -32 18 -8 7 -27 15 -43 19 -24 6 -26 10 -20 34 4 15 8 43 8 62 0 29 -4 36
-22 38 -16 2 -29 -7 -47 -35z m132 -165 c19 -19 14 -56 -8 -63 -24 -8 -50 10
-50 34 0 19 19 41 35 41 6 0 16 -5 23 -12z"/>
<path d="M905 1028 c-10 -216 23 -513 55 -493 5 3 19 31 31 63 17 44 22 78 22
152 0 83 -6 115 -47 254 -25 88 -48 161 -50 163 -2 3 -7 -60 -11 -139z"/>
<path d="M149 893 c-8 -20 -8 -40 0 -70 8 -33 7 -59 -4 -115 -56 -275 -91
-620 -66 -666 16 -29 24 -28 68 12 52 47 99 128 139 238 41 115 63 135 186
172 50 15 109 36 130 47 95 49 168 150 168 235 0 53 -33 102 -88 132 -82 46
-336 48 -435 4 l-45 -20 -6 29 c-7 37 -33 38 -47 2z"/>
<path d="M664 526 c-28 -13 -54 -31 -57 -41 -10 -24 -8 -64 3 -85 20 -37 117
-53 157 -25 26 18 39 85 26 135 -8 31 -14 35 -44 38 -20 1 -55 -7 -85 -22z"/>
</g>
</svg>
