<?xml version="1.0" encoding="utf-8"?>
<!-- Generator: Adobe Illustrator 19.2.1, SVG Export Plug-In . SVG Version: 6.00 Build 0)  -->
<svg version="1.1" id="Layer_1" xmlns="http://www.w3.org/2000/svg" xmlns:xlink="http://www.w3.org/1999/xlink" x="0px" y="0px"
	 viewBox="0 0 150.067 150" style="enable-background:new 0 0 150.067 150;" xml:space="preserve">
<style type="text/css">
	.st0{display:none;fill:none;stroke:#FFFFFF;stroke-width:2;stroke-linecap:round;stroke-miterlimit:10;}
	.st1{fill:#5CDBA9;}
	.st2{fill:#5CDBFF;}
	.st3{fill:#42C18E;}
	.st4{fill:#4DC0FF;}
	.st5{fill:#459571;}
	.st6{fill:#457BA4;}
	.st7{fill:#1A9DED;}
	.st8{fill:#1A71ED;}
	.st9{fill:#58595B;}
	.st10{fill:#F9D35B;}
	.st11{fill:#414042;}
	.st12{opacity:0.4;fill:#414042;}
</style>
<g>
	<path class="st9" d="M101.037,100.97v12.06c0,6.67,5.33,12.07,12,12.07c6.66,0,12.06-5.4,12.06-12.07c0-6.66-5.4-12.06-12.06-12.06
		H101.037z M78.037,100.97h-5.97h-0.03V78.03h0.03h5.97h0.03h22.97h12c19.33,0,35,15.67,35,35s-15.67,35-35,35s-35-15.67-35-35V101
		V100.97z"/>
	<path class="st9" d="M101.037,49.03h12c6.66,0,12.06-5.4,12.06-12.06c0-6.67-5.4-12.07-12.06-12.07c-6.67,0-12,5.4-12,12.07V49.03z
		 M78.037,78v-6.03v-23v-12c0-19.33,15.67-35,35-35s35,15.67,35,35s-15.67,35-35,35h-12v6.06h-22.97h-0.03V78z"/>
	<path class="st9" d="M49.037,49.03V49V36.97c0-6.67-5.34-12.07-12-12.07c-6.67,0-12.07,5.4-12.07,12.07
		c0,6.66,5.4,12.06,12.07,12.06H49.037z M72.037,48.97h6v23h-6h-23h-12c-19.33,0-35-15.67-35-35s15.67-35,35-35s35,15.67,35,35
		C72.037,36.97,72.037,48.9,72.037,48.97z"/>
	<path class="st9" d="M49.037,100.97h-12c-6.67,0-12.07,5.4-12.07,12.06c0,6.67,5.4,12.07,12.07,12.07c6.66,0,12-5.4,12-12.07
		V100.97z M49.037,78.03V72v-0.03h23V72v6.03v22.94v12.06c0,19.33-15.67,35-35,35s-35-15.67-35-35s15.67-35,35-35H49.037z"/>
</g>
<g>
	<rect x="59.109" y="46" class="st10" width="2" height="3"/>
	<path class="st10" d="M52.878,18.097c-1.531-1.363-3.228-2.529-5.044-3.465l-0.916,1.777c1.666,0.86,3.225,1.931,4.63,3.182
		L52.878,18.097z"/>
	<rect x="63.22" y="59.106" class="st10" width="5.887" height="2"/>
	<path class="st10" d="M41.643,14.488l0.441-1.95c-1.981-0.449-4.043-0.648-6.088-0.595l0.051,1.999
		C37.927,13.898,39.822,14.076,41.643,14.488z"/>
	<path class="st10" d="M20.846,20.387l-1.4-1.429c-1.462,1.433-2.742,3.044-3.805,4.789l1.707,1.041
		C18.325,23.184,19.502,21.704,20.846,20.387z"/>
	<path class="st10" d="M33.918,58.942c-1.868-0.225-3.702-0.685-5.451-1.365l-0.725,1.864c1.904,0.741,3.902,1.241,5.936,1.486
		L33.918,58.942z"/>
	<path class="st10" d="M30.492,14.784l-0.545-1.925c-1.967,0.557-3.862,1.361-5.635,2.391l1.006,1.729
		C26.945,16.034,28.686,15.295,30.492,14.784z"/>
	<path class="st10" d="M12.563,41.457c0.409,2.008,1.071,3.958,1.966,5.798l1.799-0.875c-0.821-1.688-1.429-3.479-1.806-5.323
		L12.563,41.457z"/>
	<path class="st10" d="M15.048,29.914l-1.912-0.584c-0.596,1.949-0.946,3.977-1.042,6.028l1.998,0.094
		C14.18,33.567,14.502,31.704,15.048,29.914z"/>
	<path class="st10" d="M19.395,51.091l-1.527,1.291c1.321,1.562,2.834,2.958,4.496,4.147l1.164-1.626
		C21.999,53.81,20.609,52.527,19.395,51.091z"/>
	<rect x="51.447" y="59.106" class="st10" width="5.887" height="2"/>
	<rect x="39.676" y="59.106" class="st10" width="5.886" height="2"/>
	<path class="st10" d="M59.109,36.52v3.594h2V36.52c0-0.797-0.038-1.598-0.112-2.382l-1.99,0.188
		C59.074,35.047,59.109,35.786,59.109,36.52z"/>
	<path class="st10" d="M59.668,28.166c-0.688-1.925-1.618-3.762-2.763-5.46l-1.658,1.118c1.051,1.56,1.905,3.248,2.538,5.016
		L59.668,28.166z"/>
	<rect x="75.067" y="59.106" class="st10" width="3" height="2"/>
	<path class="st10" d="M134.733,102.117c-0.888-1.884-2.016-3.652-3.353-5.258l-1.537,1.279c1.229,1.476,2.265,3.101,3.081,4.832
		L134.733,102.117z"/>
	<rect x="97.171" y="88" class="st10" width="6" height="2"/>
	<path class="st10" d="M123.006,132.575l0.934,1.77c1.841-0.972,3.558-2.179,5.103-3.587l-1.348-1.479
		C126.276,130.574,124.697,131.683,123.006,132.575z"/>
	<path class="st10" d="M131.408,124.916l1.674,1.094c1.143-1.749,2.058-3.638,2.719-5.614l-1.896-0.635
		C133.297,121.575,132.457,123.31,131.408,124.916z"/>
	<path class="st10" d="M126.818,92.61c-1.697-1.221-3.542-2.219-5.483-2.967l-0.719,1.865c1.781,0.688,3.476,1.604,5.034,2.725
		L126.818,92.61z"/>
	<path class="st10" d="M134.683,108.422c0.255,1.364,0.384,2.766,0.384,4.164c0,0.523-0.018,1.043-0.053,1.558l1.996,0.135
		c0.037-0.56,0.057-1.124,0.057-1.692c0-1.521-0.141-3.046-0.417-4.531L134.683,108.422z"/>
	<path class="st10" d="M100.001,133.755c1.795,1.069,3.723,1.903,5.728,2.477l0.551-1.922c-1.84-0.527-3.607-1.292-5.255-2.273
		L100.001,133.755z"/>
	<path class="st10" d="M91.318,124.942c1.043,1.808,2.314,3.478,3.776,4.963l1.426-1.404c-1.344-1.364-2.512-2.897-3.47-4.559
		L91.318,124.942z"/>
	<path class="st10" d="M112.485,135.173l-0.547-0.007l-0.041,2l0.583,0.007c1.896,0,3.785-0.217,5.615-0.645l-0.455-1.947
		C115.96,134.974,114.224,135.173,112.485,135.173z"/>
	<rect x="88.025" y="101" class="st10" width="2" height="6"/>
	<rect x="85.171" y="88" class="st10" width="6" height="2"/>
	<path class="st10" d="M88.028,113.018c0.036,2.091,0.333,4.167,0.883,6.169l1.928-0.529c-0.505-1.841-0.777-3.75-0.811-5.675
		L88.028,113.018z"/>
	<path class="st10" d="M115.052,90.146l0.225-1.988c-0.916-0.104-1.856-0.156-2.796-0.157h-3.31v2h3.309
		C113.344,90.001,114.209,90.05,115.052,90.146z"/>
	<rect x="73.171" y="88" class="st10" width="6" height="2"/>
	<rect x="46.014" y="88.011" class="st10" width="3" height="2"/>
	<path class="st10" d="M19.717,97.446l-1.482-1.342c-1.367,1.511-2.54,3.188-3.487,4.983l1.77,0.934
		C17.386,100.372,18.463,98.833,19.717,97.446z"/>
	<path class="st10" d="M23.947,93.797c1.558-1.036,3.24-1.876,5-2.496l-0.664-1.887c-1.917,0.676-3.748,1.59-5.443,2.719
		L23.947,93.797z"/>
	<path class="st10" d="M13.947,112.466c-0.001-1.763,0.203-3.519,0.606-5.217l-1.945-0.463c-0.439,1.851-0.662,3.762-0.661,5.681
		l0.003,0.367l2-0.033L13.947,112.466z"/>
	<path class="st10" d="M12.785,118.854c0.526,1.964,1.3,3.859,2.297,5.636l1.744-0.98c-0.916-1.63-1.626-3.371-2.109-5.173
		L12.785,118.854z"/>
	<rect x="59.119" y="92.625" class="st10" width="2" height="5.852"/>
	<path class="st10" d="M57.353,121.242l1.842,0.777c0.79-1.87,1.345-3.841,1.649-5.854l-1.979-0.299
		C58.587,117.716,58.077,119.524,57.353,121.242z"/>
	<rect x="59.119" y="104.327" class="st10" width="2" height="5.852"/>
	<rect x="59.119" y="80.923" class="st10" width="2" height="5.852"/>
	<path class="st10" d="M28.891,135.841c1.929,0.631,3.938,1.021,5.972,1.156l0.133-1.996c-1.867-0.125-3.712-0.481-5.483-1.061
		L28.891,135.841z"/>
	<path class="st10" d="M18.694,129.385c1.401,1.478,2.981,2.777,4.696,3.863l1.07-1.689c-1.576-0.998-3.027-2.192-4.315-3.551
		L18.694,129.385z"/>
	<path class="st10" d="M34.224,88.116l0.184,1.992c0.699-0.064,1.414-0.098,2.126-0.098h3.629v-2h-3.629
		C35.761,88.011,34.984,88.046,34.224,88.116z"/>
	<path class="st10" d="M40.577,134.691l0.355,1.969c2.005-0.363,3.96-0.976,5.809-1.821l-0.832-1.818
		C44.212,133.797,42.418,134.359,40.577,134.691z"/>
	<path class="st10" d="M50.665,130.088l1.252,1.559c1.586-1.272,3.011-2.74,4.237-4.361l-1.596-1.207
		C53.432,127.568,52.122,128.918,50.665,130.088z"/>
	<rect x="59.119" y="72" class="st10" width="2" height="3"/>
	<path class="st10" d="M94.76,22.784l-1.578-1.228c-1.282,1.647-2.35,3.453-3.173,5.366l1.836,0.791
		C92.602,25.957,93.583,24.298,94.76,22.784z"/>
	<path class="st10" d="M90.014,36.639c0-1.145,0.087-2.296,0.257-3.42l-1.977-0.3c-0.187,1.223-0.28,2.475-0.28,3.72v2.416h2V36.639
		z"/>
	<rect x="100.119" y="59.095" class="st10" width="6" height="2"/>
	<path class="st10" d="M134.777,26.011c-0.9-1.877-2.042-3.638-3.391-5.234l-1.527,1.291c1.239,1.467,2.287,3.085,3.115,4.809
		L134.777,26.011z"/>
	<path class="st10" d="M133.275,49.909c1.138-1.754,2.044-3.647,2.694-5.628l-1.9-0.624c-0.597,1.817-1.428,3.554-2.472,5.163
		L133.275,49.909z"/>
	<rect x="88.014" y="45.055" class="st10" width="2" height="6"/>
	<path class="st10" d="M103.767,15.846l-0.783-1.841c-1.916,0.815-3.727,1.876-5.382,3.152l1.221,1.584
		C100.343,17.568,102.007,16.594,103.767,15.846z"/>
	<path class="st10" d="M123.207,56.484l0.934,1.769c1.845-0.973,3.562-2.18,5.102-3.587l-1.348-1.477
		C126.479,54.481,124.902,55.589,123.207,56.484z"/>
	<rect x="88.014" y="57.055" class="st10" width="2" height="6"/>
	<path class="st10" d="M126.792,16.561c-1.705-1.208-3.556-2.192-5.503-2.928l-0.707,1.871c1.788,0.675,3.488,1.58,5.054,2.689
		L126.792,16.561z"/>
	<path class="st10" d="M115.01,14.18l0.211-1.989c-2.062-0.218-4.186-0.176-6.231,0.126l0.291,1.979
		C111.163,14.018,113.117,13.979,115.01,14.18z"/>
	<path class="st10" d="M112.6,59.095h-0.48v2h0.48c1.927,0,3.844-0.221,5.698-0.657l-0.457-1.947
		C116.136,58.892,114.372,59.095,112.6,59.095z"/>
	<path class="st10" d="M136.736,31.935l-1.963,0.381c0.274,1.415,0.413,2.869,0.413,4.321c-0.001,0.469-0.015,0.935-0.043,1.396
		l1.996,0.122c0.03-0.5,0.046-1.005,0.047-1.517C137.186,35.058,137.034,33.475,136.736,31.935z"/>
	<rect x="88.014" y="69.055" class="st10" width="2" height="6"/>
</g>
<path class="st11" d="M113.036,76.03h-10v-2.06h10c20.402,0,37-16.598,37-37s-16.598-37-37-37s-37,16.598-37,37v10h-2v-10
	c0-20.402-16.598-37-37-37s-37,16.598-37,37s16.598,37,37,37h10v2.06h-10c-20.402,0-37,16.598-37,37s16.598,37,37,37
	s37-16.598,37-37V102.97h2v10.061c0,20.402,16.598,37,37,37s37-16.598,37-37S133.439,76.03,113.036,76.03z M113.036,3.97
	c18.196,0,33,14.804,33,33s-14.804,33-33,33h-10V51.03h10c7.753,0,14.061-6.307,14.061-14.06c0-7.758-6.308-14.07-14.061-14.07
	c-7.72,0-14,6.312-14,14.07v12.06v2v25h-19V36.97C80.036,18.774,94.84,3.97,113.036,3.97z M103.036,47.03V36.97
	c0-5.553,4.486-10.07,10-10.07c5.548,0,10.061,4.518,10.061,10.07c0,5.547-4.513,10.06-10.061,10.06H103.036z M74.036,73.97h2v2.06
	h-2V73.97z M4.036,36.97c0-18.196,14.804-33,33-33s33,14.804,33,33v10.06h-19V36.97c0-7.758-6.28-14.07-14-14.07
	c-7.758,0-14.069,6.312-14.069,14.07c0,7.752,6.312,14.06,14.069,14.06h35v-0.06h4v19h-39C18.84,69.97,4.036,55.167,4.036,36.97z
	 M47.036,36.97v10.06h-10c-5.553,0-10.069-4.513-10.069-10.06c0-5.553,4.517-10.07,10.069-10.07
	C42.55,26.9,47.036,31.417,47.036,36.97z M37.036,146.03c-18.196,0-33-14.804-33-33s14.804-33,33-33h10V98.97h-10
	c-7.758,0-14.069,6.308-14.069,14.061c0,7.758,6.312,14.069,14.069,14.069c7.72,0,14-6.312,14-14.069V100.97v-2v-25h19v39.06
	C70.036,131.227,55.233,146.03,37.036,146.03z M47.036,102.97v10.061c0,5.553-4.486,10.069-10,10.069
	c-5.553,0-10.069-4.517-10.069-10.069c0-5.548,4.517-10.061,10.069-10.061H47.036z M113.036,146.03c-18.196,0-33-14.804-33-33
	V102.97h19v10.061c0,7.758,6.28,14.069,14,14.069c7.753,0,14.061-6.312,14.061-14.069c0-7.753-6.308-14.061-14.061-14.061h-12h-2
	h-25V80.03h4.03L78.051,78h0.015v2.03h34.97c18.196,0,33,14.804,33,33S131.233,146.03,113.036,146.03z M103.036,113.03V102.97h10
	c5.548,0,10.061,4.513,10.061,10.061c0,5.553-4.513,10.069-10.061,10.069C107.523,123.1,103.036,118.583,103.036,113.03z"/>
<rect x="49.037" y="42" class="st12" width="23.03" height="7.03"/>
<rect x="49.037" y="71.97" class="st12" width="23.03" height="7.03"/>
<rect x="79.067" y="100.97" class="st12" width="23.03" height="7.03"/>
<rect x="79.067" y="71" class="st12" width="23.03" height="7.03"/>
<rect x="63.067" y="57" transform="matrix(4.494164e-11 1 -1 4.494164e-11 135.0966 -14.0666)" class="st12" width="23.03" height="7.03"/>
<rect x="93.037" y="57" transform="matrix(4.494164e-11 1 -1 4.494164e-11 165.0666 -44.0366)" class="st12" width="23.03" height="7.03"/>
<rect x="64.037" y="85.97" transform="matrix(4.494164e-11 1 -1 4.494164e-11 165.0366 13.9334)" class="st12" width="23.03" height="7.03"/>
<rect x="34.067" y="85.97" transform="matrix(4.494164e-11 1 -1 4.494164e-11 135.0666 43.9034)" class="st12" width="23.03" height="7.03"/>
</svg>
